<?xml version="1.0" standalone="no"?><!DOCTYPE svg PUBLIC "-//W3C//DTD SVG 1.1//EN" "http://www.w3.org/Graphics/SVG/1.1/DTD/svg11.dtd"><svg t="1628934669656" class="icon" viewBox="0 0 1024 1024" version="1.1" xmlns="http://www.w3.org/2000/svg" p-id="2358" xmlns:xlink="http://www.w3.org/1999/xlink" width="200" height="200"><defs><style type="text/css"></style></defs><path d="M512.26367188 809.421875c-91.7578125 0-181.66992188-26.71875-260.06835938-77.34375-73.65234375-47.4609375-135.26367188-114.69726563-178.59375-194.58984375C64.37304687 526.94140625 62 511.38476562 68.85546875 498.20117187c43.33007813-83.49609375 106.34765625-153.6328125 182.28515625-202.85156249 78.66210938-51.06445313 168.92578125-77.95898438 261.12304688-77.95898438 91.23046875 0 181.49414063 27.0703125 261.03515624 78.31054688 77.08007813 49.65820313 140.88867188 119.61914063 184.57031251 202.41210937 7.03125 13.359375 4.5703125 29.26757813-4.92187501 39.90234375-43.68164063 79.01367188-105.99609375 145.8984375-180.61523437 193.7109375-79.36523438 50.80078125-169.27734375 77.6953125-260.06835938 77.6953125zM140.66210937 513.40625c79.71679688 139.65820313 220.60546875 225.703125 371.60156251 225.703125 151.08398438 0 292.76367188-86.04492188 373.79882812-225.79101563-81.03515625-139.74609375-222.5390625-225.703125-373.7109375-225.70312499S220.37890625 373.57226562 140.66210937 513.40625zM513.49414063 642.95703125c-71.45507813 0-129.63867188-58.18359375-129.63867188-129.63867188S442.0390625 383.6796875 513.49414063 383.6796875s129.63867188 58.18359375 129.63867187 129.63867188c0 71.54296875-58.18359375 129.63867188-129.63867188 129.63867187z m0-188.96484375c-32.6953125 0-59.32617188 26.63085938-59.32617188 59.32617188s26.63085938 59.32617188 59.32617188 59.32617187 59.32617188-26.63085938 59.32617187-59.32617188-26.63085938-59.32617188-59.32617188-59.32617187z" p-id="2359" fill="#515151"></path></svg>