<?xml version="1.0" standalone="no"?><!DOCTYPE svg PUBLIC "-//W3C//DTD SVG 1.1//EN" "http://www.w3.org/Graphics/SVG/1.1/DTD/svg11.dtd"><svg t="1628934676721" class="icon" viewBox="0 0 1024 1024" version="1.1" xmlns="http://www.w3.org/2000/svg" p-id="2569" xmlns:xlink="http://www.w3.org/1999/xlink" width="200" height="200"><defs><style type="text/css"></style></defs><path d="M174.5 884.65625c-8.96484375 0-18.01757813-3.42773438-24.87304688-10.28320313-13.7109375-13.7109375-13.7109375-35.94726563 1e-8-49.74609374l96.50390624-96.50390626C175.203125 680.92578125 115.7890625 615.18359375 73.6015625 537.48828125 64.37304687 526.94140625 62 511.38476562 68.85546875 498.20117187c43.33007813-83.49609375 106.34765625-153.6328125 182.28515625-202.85156249 78.66210938-51.06445313 168.92578125-77.95898438 261.12304688-77.95898438 68.5546875 0 136.66992188 15.29296875 200.03906249 44.73632813l112.32421876-112.50000001c13.7109375-13.7109375 35.94726563-13.7109375 49.74609375 0s13.7109375 35.94726563 0 49.74609375L776.28710938 297.45898437C852.04882813 346.94140625 914.80273438 416.19921875 957.86914063 497.9375c7.03125 13.359375 4.5703125 29.26757813-4.92187501 39.90234375C909.265625 617.02929688 846.95117188 683.9140625 772.33203125 731.7265625c-79.36523438 50.80078125-169.27734375 77.6953125-260.06835938 77.6953125-70.04882813 0-138.95507813-15.55664063-202.58789062-45.43945313L199.37304687 874.37304688c-6.85546875 6.85546875-15.8203125 10.28320313-24.87304687 10.28320312z m188.87695313-174.28710938c47.109375 18.72070313 97.47070313 28.74023438 148.88671874 28.74023438 151.08398438 0 292.76367188-86.04492188 373.79882813-225.79101563-40.51757813-69.87304688-96.06445313-126.2109375-160.48828125-165.23437499L625.46679688 448.19140625c11.16210938 19.16015625 17.578125 41.39648438 17.57812499 65.12695313 0 71.45507813-58.18359375 129.63867188-129.63867187 129.63867187-23.73046875 0-45.96679688-6.41601563-65.12695313-17.578125l-84.90234374 84.99023438zM140.66210937 513.40625c39.375 68.90625 93.60351563 124.8046875 156.53320313 163.65234375l102.12890625-102.12890625c-9.93164063-18.28125-15.55664063-39.28710938-15.55664063-61.5234375 0-71.45507813 58.18359375-129.63867188 129.63867188-129.63867188 22.23632813 0 43.2421875 5.625 61.5234375 15.55664063l84.0234375-84.0234375c-46.58203125-18.10546875-96.06445313-27.68554688-146.68945313-27.68554688-151.08398438 0-291.88476563 85.95703125-371.60156249 225.79101563z m361.49414063 58.18359375c3.69140625 0.703125 7.47070313 1.0546875 11.33789063 1.0546875 32.6953125 0 59.32617188-26.63085938 59.32617187-59.32617188 0-3.8671875-0.3515625-7.64648438-1.0546875-11.33789062l-69.609375 69.609375zM513.49414063 453.9921875c-32.6953125 0-59.32617188 26.63085938-59.32617188 59.32617188 0 2.19726563 0.08789063 4.30664063 0.3515625 6.50390625l65.47851563-65.47851563c-2.19726563-0.17578125-4.39453125-0.3515625-6.50390626-0.3515625z" p-id="2570" fill="#515151"></path></svg>